<?xml version="1.0" standalone="no"?>
<!DOCTYPE svg >
<svg version="1.0" xmlns="http://www.w3.org/2000/svg"
 width="512.000000pt" height="512.000000pt" viewBox="0 0 512.000000 512.000000"
 preserveAspectRatio="xMidYMid meet">

<g transform="translate(0.000000,512.000000) scale(0.100000,-0.100000)"
fill="#333333" stroke="none">
<path d="M1288 3882 c-153 -153 -206 -68 477 -752 l575 -575 -575 -575 c-678
-678 -625 -599 -490 -739 89 -92 128 -117 168 -107 22 5 1380 1355 1400 1392
27 48 20 56 -691 767 -813 812 -710 743 -864 589z"/>
<path d="M2386 3881 c-93 -92 -100 -102 -99 -137 1 -35 28 -63 575 -611 l573
-573 -567 -567 c-312 -313 -572 -581 -577 -596 -16 -43 6 -81 101 -175 67 -66
92 -84 122 -89 l38 -6 693 693 c391 391 696 704 700 717 3 13 -1 38 -10 56 -8
18 -320 337 -693 710 -663 663 -678 677 -716 677 -36 0 -47 -8 -140 -99z"/>
</g>
</svg>
