<?xml version="1.0" encoding="utf-8"?>
<!-- Generator: Adobe Illustrator 22.1.0, SVG Export Plug-In . SVG Version: 6.00 Build 0)  -->
<svg version="1.1" id="Слой_1" xmlns="http://www.w3.org/2000/svg" xmlns:xlink="http://www.w3.org/1999/xlink" x="0px" y="0px"
	 viewBox="0 0 200 200" style="enable-background:new 0 0 200 200;" xml:space="preserve">
<style type="text/css">
	.st0{fill:none;stroke:white;stroke-width:5;stroke-miterlimit:10;}
</style>
<g>
	<path class="st0" d="M157.1,106.3c2.3,5.5-2.8,5.6-2.8,5.6l-3.3-6.8C151,105.2,154.8,100.9,157.1,106.3z"/>
	<path class="st0" d="M61.6,69.2c40.6-9.8,56.6,21.1,56.6,21.1c29.9-4.6,37.3,23.2,37.3,23.2l0.4,3.1c0,0-7.2-12.2-23.2-8.5
		c-15.9,3.7-15.7,26.6-15.7,26.6l-61.9,14.4c0,0-10.6-20.5-25-18c-14.3,2.5-18.8,16.4-18.8,16.4l-1.4-3.1
		C12.7,110.7,19.9,79.3,61.6,69.2z"/>
	<path class="st0" d="M34.1,89.9C43.4,79.7,57,76.2,57.8,76.6c0.7,0.3,7.1,27.3,6.9,28.7c-0.3,1.5-37.7,10.9-40.3,10.6
		C22.9,115.7,26,98.9,34.1,89.9z"/>
	<path class="st0" d="M92.6,76.3c11.3,4.5,16,15.3,16.6,16.7c1.7,4.3-36,10.9-37.1,10.6c-1.3-0.5-7.3-28-6.7-28.4
		C66.5,74.4,79.8,71.3,92.6,76.3z"/>
	<path class="st0" d="M29,142.4c6.3-2.3,15.7,1.1,18.5,10.5c2.8,9.4-1.8,18.3-9.6,20.4c-7.8,2.1-15.8-4.1-18.1-12.9
		C17.8,152.4,22.7,144.7,29,142.4z"/>
	<path class="st0" d="M135.5,117.6c6.3-2.3,15.7,1.1,18.5,10.5c2.8,9.4-1.8,18.3-9.6,20.4c-7.8,2.1-15.8-4.1-18.1-12.9
		C124.4,127.6,129.2,119.9,135.5,117.6z"/>
</g>
<line class="st0" x1="117.5" y1="172.5" x2="186.5" y2="127.5"/>
</svg>
