<?xml version="1.0" encoding="utf-8"?>
<svg version="1.1" id="Слой_1" xmlns="http://www.w3.org/2000/svg" xmlns:xlink="http://www.w3.org/1999/xlink" x="0px" y="0px"
	 viewBox="0 0 400 400" style="enable-background:new 0 0 400 400;" xml:space="preserve">
<style type="text/css">
	.st0{fill:#FFFFFF;stroke:#FFFFFF;stroke-miterlimit:10;}
</style>
<path class="st0" d="M399.5,199.3C399.4,88.8,309.7-0.6,199.3-0.5S-0.6,89.3-0.5,199.7s89.8,199.9,200.2,199.8
	S399.6,309.7,399.5,199.3z M112.3,101.1c0-17.1,13.9-31,31-31c17.1,0,31,13.9,31,31c0,17.1-13.9,31-31,31
	C126.2,132.1,112.3,118.3,112.3,101.1z M224.9,101.1c0-17.1,13.9-31,31-31c17.1,0,31,13.9,31,31c0,17.1-13.9,31-31,31
	C238.8,132.2,224.9,118.3,224.9,101.1z M54.9,199.9c0-17.1,13.9-31,31-31c17.1,0,31,13.9,31,31s-13.9,31-31,31
	S54.9,217.1,54.9,199.9z M282.4,200c0-17.1,13.9-31,31-31c17.1,0,31,13.9,31,31c0,17.1-13.9,31-31,31
	C296.3,231,282.4,217.1,282.4,200z M112.3,298.8c0-17.1,13.9-31,31-31c17.1,0,31,13.9,31,31c0,17.1-13.9,31-31,31
	S112.3,315.9,112.3,298.8z M224.9,298.8c0-17.1,13.9-31,31-31c17.1,0,31,13.9,31,31c0,17.1-13.9,31-31,31
	C238.8,329.8,224.9,315.9,224.9,298.8z"/>
</svg>
