<?xml version="1.0" encoding="utf-8"?>
<!-- Generator: Adobe Illustrator 22.1.0, SVG Export Plug-In . SVG Version: 6.00 Build 0)  -->
<svg version="1.1" id="Слой_1" xmlns="http://www.w3.org/2000/svg" xmlns:xlink="http://www.w3.org/1999/xlink" x="0px" y="0px"
	 viewBox="0 0 50 50" style="enable-background:new 0 0 50 50;" xml:space="preserve">
<style type="text/css">
	.st0{fill:#585858;}
</style>
<path class="st0" d="M25,0C11.2,0,0,11.2,0,25s11.2,25,25,25s25-11.2,25-25S38.8,0,25,0z M25,4.5c11.3,0,20.5,9.2,20.5,20.5
	c0,9.4-6.3,17.2-14.9,19.7c-0.1-0.2-0.2-0.5-0.2-0.7c0-1.4,0-4.6,0-5.8c0-2-1.3-3.5-1.3-3.5s10,0.1,10-10.6c0-4.1-2.2-6.3-2.2-6.3
	s1.1-4.4-0.4-6.3c-1.7-0.2-4.8,1.6-6.1,2.5c0,0-2.1-0.9-5.5-0.9s-5.5,0.9-5.5,0.9c-1.3-0.8-4.4-2.7-6.1-2.5
	c-1.5,1.9-0.4,6.3-0.4,6.3s-2.2,2.1-2.2,6.3c0,10.7,10,10.6,10,10.6s-1.1,1.3-1.3,3.2c-0.7,0.2-1.6,0.5-2.5,0.5c-2.1,0-3.7-2-4.3-3
	c-0.6-0.9-1.8-1.7-2.9-1.7c-0.7,0-1.1,0.4-1.1,0.8c0,0.4,1,0.7,1.7,1.5c1.4,1.6,1.4,5.3,6.4,5.3c0.6,0,1.7-0.1,2.5-0.3
	c0,1.1,0,2.2,0,3c0,0.3-0.1,0.5-0.2,0.7C10.8,42.2,4.5,34.4,4.5,25C4.5,13.7,13.7,4.5,25,4.5z"/>
</svg>
