<?xml version="1.0" encoding="utf-8"?>
<!-- Generator: Adobe Illustrator 22.1.0, SVG Export Plug-In . SVG Version: 6.00 Build 0)  -->
<svg version="1.1" id="Слой_1" xmlns="http://www.w3.org/2000/svg" xmlns:xlink="http://www.w3.org/1999/xlink" x="0px" y="0px"
	 viewBox="0 0 100 100" style="enable-background:new 0 0 100 100;" xml:space="preserve">
<style type="text/css">
	.st0{font-family:'Impact';}
	.st1{font-size:21.0443px;}
	.st2{fill:none;stroke:#000000;stroke-width:2.5;stroke-miterlimit:10;}
	.st3{fill:none;stroke:#000000;stroke-miterlimit:10;}
</style>
<g>
	<path d="M36.8,61.8c0.1-0.3,0.1-0.6,0.1-0.8c0-1.5-0.8-3-2.2-4l0-0.1c0.1-0.1,0.2-0.2,0.3-0.2c0,0,0.9-0.1,0.9-0.1
		c0.2,0,0.4,0.1,0.4,0.2l0.8,4.9C37,61.7,36.9,61.8,36.8,61.8z"/>
	<path d="M35.8,57l0,0.2c-0.1-0.1-0.1-0.2-0.2-0.2L35.8,57 M35.9,56c0,0-0.1,0-0.1,0l-0.9,0.1c-0.5,0.1-0.8,0.4-0.7,0.8l0,0.2
		c0,0.1,0.1,0.1,0.1,0.2c1.2,0.9,2,2.2,2,3.7c0,0.3,0,0.7-0.1,1c0,0.2,0.1,0.4,0.3,0.4c0,0,0,0,0.1,0l0.2,0c0.5-0.1,0.8-0.4,0.7-0.8
		l-0.8-4.9C36.6,56.3,36.3,56,35.9,56L35.9,56z"/>
</g>
<g>
	<path d="M67.9,63.3L67.9,63.3c-0.2,0-0.4-0.1-0.4-0.3l0-6c0-0.2,0.2-0.4,0.5-0.4l0.8,0c0,0.1,0,0.3,0,0.3c-1,1.2-1.4,3.1-1,5.4
		C67.8,62.6,67.9,62.9,67.9,63.3L67.9,63.3z"/>
	<path d="M68,57C68,57,68,57,68,57L68,57L68,57 M68.9,56C68.9,56,68.9,56,68.9,56l-1,0c-0.5,0-0.9,0.4-0.9,0.9l0,6
		c0,0.5,0.4,0.8,0.9,0.8c0,0,0,0,0,0l0.2,0c0.3,0,0.5-0.3,0.4-0.5c-0.2-0.4-0.3-0.8-0.3-1.2c-0.3-1.8-0.2-3.8,1-5.1
		C69.2,56.5,69.4,56,68.9,56L68.9,56z M69.3,57C69.3,57,69.3,57,69.3,57C69.3,57,69.3,57,69.3,57L69.3,57z M69.2,57
		C69.2,57,69.2,57,69.2,57C69.2,57,69.2,57,69.2,57L69.2,57z"/>
</g>
<g>
	<rect x="36.8" y="56.5" width="30.6" height="3.3"/>
	<path d="M67,57v2.3H37.3V57H67 M68,56H36.3v4.3H68V56L68,56z"/>
</g>
<g>
	<path d="M23.1,63.2c-0.1,0-0.3-0.1-0.3-0.2c0,0-0.1-0.1-0.1-0.2l0.9-6c0-0.2,0.2-0.3,0.4-0.3l1.1,0.1c0.1,0,0.3,0.1,0.3,0.2
		c0,0,0.1,0.1,0.1,0.2l0,0.2c-1.5,1.2-2.4,3-2.4,4.8C23.1,62.4,23.1,62.8,23.1,63.2L23.1,63.2z"/>
	<path d="M24.1,57l0.7,0.1c-0.3,0.3-0.6,0.6-0.9,0.9L24.1,57 M24.1,56c-0.5,0-0.9,0.3-0.9,0.7l-0.9,6c-0.1,0.5,0.3,0.9,0.8,0.9
		l0.2,0c0,0,0,0,0.1,0c0.3,0,0.4-0.2,0.4-0.4c-0.1-0.4-0.1-0.8-0.1-1.2c0-1.8,0.9-3.4,2.3-4.5c0.1-0.1,0.1-0.1,0.1-0.2l0-0.3
		c0.1-0.5-0.3-0.9-0.8-0.9l-1-0.1C24.2,56,24.2,56,24.1,56L24.1,56z"/>
</g>
<g>
	<polygon points="9.4,61.1 23.6,56.6 23.9,57.7 9.4,61.4 	"/>
	<path d="M23.3,57.2l0,0.1l-2.2,0.5L23.3,57.2 M23.6,56.1c-0.1,0-0.1,0-0.2,0L8.9,60.7L9,62l15-3.8c0.3-0.1,0.5-0.4,0.4-0.7l-0.3-1
		C24,56.3,23.8,56.1,23.6,56.1L23.6,56.1z"/>
</g>
<rect x="63" y="31" width="4" height="26"/>
<rect x="63" y="31" width="6" height="1"/>
<rect x="61" y="41" transform="matrix(0.9508 0.3097 -0.3097 0.9508 18.4018 -16.9218)" width="3" height="17"/>
<rect x="62" y="52" width="3" height="7"/>
<path d="M86.7,46.6l-8.5-11.9c-0.3-0.4-0.8-0.7-1.3-0.7H66.6c-0.9,0-1.6,0.7-1.6,1.6v19.8c0,0.9,0.7,1.6,1.6,1.6h1.9
	c0.5,0,0.9-0.2,1.2-0.5C71,55,72.9,54,75,54c1.5,0,2.9,0.5,4,1.3c0.2,0.1,0.4,0.3,0.5,0.4c0.5,0.4,0.9,0.8,1.2,1.3
	c0.8,1.1,1.3,2.5,1.3,4c0,0.3,0,0.7-0.1,1h3.5c0.9,0,1.6-0.7,1.6-1.6V57v-2v-7.5C87,47.2,86.9,46.9,86.7,46.6z M81.2,48
	c-0.1,0-0.2,0-0.3-0.1l-2.7-1.8C78,46,77.1,46,77,46h-8.4c-0.3,0-0.6-0.3-0.6-0.6v-8.9c0-0.3,0.3-0.6,0.6-0.6h8.1
	c0.2,0,0.4,0.1,0.5,0.3l7.2,10.9c0.2,0.4,0,0.9-0.5,0.9H81.2z M86,59.4c0,0.7-1,0.9-1.4,0.3L82.3,56c-0.3-0.5,0.1-1,0.6-1l2.3,0
	c0.4,0,0.7,0.3,0.7,0.7L86,59.4z"/>
<text transform="matrix(1 0 0 1 19.75 51.6152)" class="st0 st1">24/7</text>
<circle class="st2" cx="30" cy="62" r="4.5"/>
<circle class="st2" cx="75" cy="61" r="4.5"/>
<circle class="st3" cx="62" cy="56" r="0.5"/>
</svg>
