<?xml version="1.0" encoding="utf-8"?>
<!-- Generator: Adobe Illustrator 22.1.0, SVG Export Plug-In . SVG Version: 6.00 Build 0)  -->
<svg version="1.1" xmlns="http://www.w3.org/2000/svg" xmlns:xlink="http://www.w3.org/1999/xlink" x="0px" y="0px"
	 viewBox="0 0 100 100" style="enable-background:new 0 0 100 100;" xml:space="preserve">
<style type="text/css">
	.st0{display:none;}
	.st1{display:inline;stroke:#000000;stroke-miterlimit:10;}
	.st2{fill:none;stroke:#FFFFFF;stroke-width:2;stroke-miterlimit:10;}<!--внешиний круг-->
	.st3{fill:#FFFFFF;}
	.st4{font-family:'ROBO';}
	.st5{font-size:12.0065px;}
	.st6{fill:none;stroke:#FAFCFC;stroke-width:2;}<!--нижние полосы-->
	.st7{fill:#FAFCFC;stroke:#FFFFFF;stroke-width:1;stroke-miterlimit:10;} <!--круг по центру-->
	.st10{fill:none;stroke:url(#SVGID_3_);stroke-width:2;stroke-miterlimit:10;} <!--дуга над центральным кругом-->
	.st11{font-family:'Molot';}
	.st12{font-size:2.687px;}
	.st13{fill:none;}
	
</style>
<g id="Слой_1">
	<line class="st2" x1="30.7" y1="59.3" x2="0.8" y2="59.3"/>
	<line class="st2" x1="28" y1="58.2" x2="70.7" y2="58.2"/>
	<text transform="matrix(1.4002 0 0 1 2.5928 53.6855)" class="st3 st4 st5">CINEMATIC</text>
	<polygon class="st3" points="26.7,63.2 27.1,64.1 28.1,64.2 27.4,65 27.6,66 26.7,65.5 25.8,66 25.9,65 25.2,64.2 26.2,64.1 	"/>
	<polygon class="st3" points="72.3,63.2 72.8,64.1 73.8,64.2 73.1,65 73.3,66 72.3,65.5 71.4,66 71.6,65 70.9,64.2 71.9,64.1 	"/>
	<line class="st6" x1="3.5" y1="67.4" x2="32.9" y2="67.4"/>
	<line class="st6" x1="66.6" y1="68" x2="96" y2="68"/>
	<line class="st2" x1="98.7" y1="59.3" x2="68.8" y2="59.3"/>
	<path class="st7" d="M42.1,39.2c0.5-0.7,1-1.4,1.7-2.1c-0.7-1.3-0.3-2.9,0.9-3.6c1.2-0.8,2.8-0.4,3.7,0.8c0.7-0.2,1.5-0.2,2.4,0
		c0.2-0.4,0.5-0.7,0.9-1c1.3-0.8,3-0.4,3.7,0.9c0.6,0.9,0.5,2.1,0,2.9c0.5,0.5,1,1.1,1.5,1.7c4.3-3.7,5.4-10.1,2.3-15
		C55.7,18.2,48.5,16.6,43,20c-5.5,3.4-7.1,10.6-3.7,16.1C40.1,37.3,41,38.3,42.1,39.2z M46.6,29.3L46.6,29.3
		C46.6,29.3,46.6,29.3,46.6,29.3C46.6,29.3,46.6,29.3,46.6,29.3L46.6,29.3z M58.6,27.9c0.8,1.3,0.4,3-0.9,3.7
		c-1.3,0.8-3,0.4-3.7-0.9c-0.8-1.3-0.4-3,0.9-3.7C56.1,26.2,57.8,26.6,58.6,27.9z M51.2,21.3c1.3-0.8,3-0.4,3.7,0.9s0.4,3-0.9,3.7
		c-1.3,0.8-3,0.4-3.7-0.9C49.5,23.7,49.9,22.1,51.2,21.3z M51.8,28.3c0.8,1.3,0.4,3-0.9,3.7c-1.3,0.8-3,0.4-3.7-0.9s-0.4-3,0.9-3.7
		S51,27.1,51.8,28.3z M44.4,21.7c1.3-0.8,3-0.4,3.7,0.9c0.8,1.3,0.4,3-0.9,3.7c-1.3,0.8-3,0.4-3.7-0.9S43.1,22.5,44.4,21.7z
		 M40.2,31.4c-0.8-1.3-0.4-3,0.9-3.7c1.3-0.8,3-0.4,3.7,0.9c0.8,1.3,0.4,3-0.9,3.7C42.7,33.1,41,32.7,40.2,31.4z"/>
	<path class="st2" d="M41.1,41.1c0,0,7.5-14.7,16.9,0"/>
	<path class="st2" d="M43.8,39.8c0,0,5.3-7.1,11.4,0.5"/>
	<line class="st2" x1="41.6" y1="40.8" x2="0.8" y2="40.8"/>
	<line class="st2" x1="57.7" y1="40.8" x2="99" y2="40.8"/>
	<path class="st2" d="M0.8,41c0.1-0.6,0.2-1.1,0.3-1.6c0.7-3.2,1.7-6.4,3-9.3s2.8-5.8,4.6-8.4s3.9-5.1,6.1-7.3s4.7-4.3,7.4-6
		s5.5-3.3,8.5-4.5s6.1-2.2,9.4-2.8s6.6-1,10-0.9c3.4,0,6.8,0.4,10,1.1c3.2,0.7,6.3,1.7,9.3,3c3,1.3,5.8,2.8,8.4,4.7
		c2.6,1.8,5.1,3.9,7.3,6.1c2.2,2.3,4.3,4.7,6,7.4s3.3,5.5,4.5,8.5c1.2,3,2.2,6.1,2.8,9.4c0,0.2,0.1,0.4,0.1,0.6"/>
	<path class="st2" d="M91.3,77.2c-8.9,13.4-24.2,22.3-41.5,22.3c-17.3,0-32.6-8.9-41.5-22.3"/>
	
	
	

</g>
</svg>
