<?xml version="1.0" encoding="utf-8"?>
<!-- Generator: Adobe Illustrator 22.1.0, SVG Export Plug-In . SVG Version: 6.00 Build 0)  -->
<svg version="1.1" id="Слой_1" xmlns="http://www.w3.org/2000/svg" xmlns:xlink="http://www.w3.org/1999/xlink" x="0px" y="0px"
	 viewBox="0 0 400 400" style="enable-background:new 0 0 400 400;" xml:space="preserve">
<style type="text/css">
	.st0{fill:#FFFDFD;}
</style>
<g>
	<polygon class="st0" points="181.5,68.2 181.9,68.3 182.3,68 182.3,68.5 182.7,68.8 182.3,69 182.1,69.4 181.8,69 181.4,69.1 
		181.6,68.6 	"/>
	<polygon points="182.3,68 181.9,68.3 181.5,68.2 181.6,68.6 181.4,69.1 181.8,69 182.1,69.4 182.3,69 182.7,68.8 182.3,68.5 
		182.3,68 	"/>
</g>
<g>
	<path class="st0" d="M12,304.5c-6.3,0-11.5-5.2-11.5-11.5V100.9c0-6.3,5.2-11.5,11.5-11.5h329.8c6.3,0,11.5,5.2,11.5,11.5v51.9
		l46.2-28.2v145.3l-46.2-28.2V293c0,6.3-5.2,11.5-11.5,11.5H12z"/>
	<path d="M341.8,89.9c6.1,0,11,4.9,11,11v51v1.8l1.5-0.9l44.7-27.3V269l-44.7-27.3l-1.5-0.9v1.8V293c0,6.1-4.9,11-11,11H12
		c-6.1,0-11-4.9-11-11V100.9c0-6.1,4.9-11,11-11H341.8 M341.8,88.9H12c-6.6,0-12,5.4-12,12V293c0,6.6,5.4,12,12,12h329.8
		c6.6,0,12-5.4,12-12v-50.5l46.2,28.2V123.7l-46.2,28.2v-51C353.8,94.3,348.4,88.9,341.8,88.9L341.8,88.9z"/>
</g>
</svg>
