<?xml version="1.0" encoding="utf-8"?>
<!-- Generator: Adobe Illustrator 22.1.0, SVG Export Plug-In . SVG Version: 6.00 Build 0)  -->
<svg version="1.1" xmlns="http://www.w3.org/2000/svg" xmlns:xlink="http://www.w3.org/1999/xlink" x="0px" y="0px"
	 viewBox="0 0 400 400" style="enable-background:new 0 0 400 400;" xml:space="preserve">
<style type="text/css">
	.st0{display:none;}
	.st1{display:inline;fill:#050505;}
	.st2{display:inline;fill:#FFFFFF;}
	.st3{fill:none;stroke:#000000;stroke-width:5;stroke-miterlimit:10;}
	.st4{fill:#FFFFFF;stroke:#000000;stroke-width:4;stroke-miterlimit:10;}
	.st5{font-family:'ROBO';}
	.st6{font-size:46.8164px;}
	.st7{fill:#FFFFFF;stroke:#000000;stroke-width:5;stroke-miterlimit:10;}
	.st8{fill:none;stroke:#000000;stroke-width:5;}
	.st9{fill:#FAFCFC;stroke:#000000;stroke-width:5;stroke-miterlimit:10;}
</style>
<g id="Слой_4" class="st0">
	<rect x="-10" y="-5" class="st1" width="431" height="431"/>
</g>
<g id="Слой_3" class="st0">
	<ellipse class="st2" cx="200" cy="199" rx="200" ry="199"/>
</g>
<g id="Слой_1">
	<line class="st3" x1="125.6" y1="236.1" x2="8.7" y2="236.1"/>
	<line class="st3" x1="115" y1="231.9" x2="281.8" y2="231.9"/>
	<text transform="matrix(1.4026 0 0 1 15.6523 214.2813)" class="st4 st5 st6">CINEMATIC</text>
	<polygon class="st7" points="109.7,251.3 111.4,254.9 115.4,255.5 112.5,258.2 113.2,262.2 109.7,260.3 106.1,262.2 106.8,258.2 
		103.9,255.5 107.9,254.9 	"/>
	<polygon class="st7" points="288.1,251.3 289.9,254.9 293.9,255.5 291,258.2 291.7,262.2 288.1,260.3 284.6,262.2 285.3,258.2 
		282.4,255.5 286.4,254.9 	"/>
	<line class="st8" x1="19.4" y1="267.9" x2="134.1" y2="267.9"/>
	<line class="st8" x1="265.8" y1="270" x2="380.5" y2="270"/>
	<line class="st3" x1="391.2" y1="236.1" x2="274.3" y2="236.1"/>
	<path class="st9" d="M170,157.7c1.9-2.7,4.1-5.6,6.6-8.3c-2.8-4.9-1.2-11.2,3.6-14.2c4.8-3,11.1-1.6,14.3,3c2.9-0.6,6-0.6,9.2,0
		c0.8-1.5,2-2.8,3.6-3.8c5-3.1,11.5-1.6,14.6,3.4c2.3,3.6,2,8.1-0.2,11.4c1.9,2,3.9,4.2,5.9,6.8c16.8-14.4,21-39.3,8.9-58.6
		c-13.4-21.4-41.5-27.9-62.9-14.5c-21.4,13.3-27.9,41.5-14.6,62.8C162,150.5,165.8,154.4,170,157.7z M187.6,119.2L187.6,119.2
		C187.6,119.2,187.6,119.2,187.6,119.2C187.6,119.2,187.6,119.2,187.6,119.2L187.6,119.2z M234.3,113.7c3.1,5,1.6,11.5-3.4,14.6
		c-5,3.1-11.5,1.6-14.6-3.4c-3.1-5-1.6-11.5,3.4-14.6C224.7,107.2,231.2,108.8,234.3,113.7z M205.5,87.9c5-3.1,11.5-1.6,14.6,3.4
		c3.1,5,1.6,11.5-3.4,14.6c-5,3.1-11.5,1.6-14.6-3.4C199,97.6,200.5,91,205.5,87.9z M207.7,115.4c3.1,5,1.6,11.5-3.4,14.6
		c-5,3.1-11.5,1.6-14.6-3.4c-3.1-5-1.6-11.5,3.4-14.6C198.1,108.9,204.6,110.4,207.7,115.4z M179,89.6c5-3.1,11.5-1.6,14.6,3.4
		c3.1,5,1.6,11.5-3.4,14.6c-5,3.1-11.5,1.6-14.6-3.4C172.5,99.2,174,92.7,179,89.6z M162.6,127.4c-3.1-5-1.6-11.5,3.4-14.6
		c5-3.1,11.5-1.6,14.6,3.4c3.1,5,1.6,11.5-3.4,14.6S165.7,132.4,162.6,127.4z"/>
	<path class="st3" d="M166,165.1c0,0,29.1-57.3,65.9,0"/>
	<path class="st3" d="M176.7,160.1c0,0,20.9-27.8,44.6,1.8"/>
	<line class="st3" x1="168.1" y1="164" x2="8.7" y2="164"/>
	<line class="st3" x1="230.8" y1="164" x2="392.2" y2="164"/>
	<path class="st3" d="M8.7,164.9c0.4-2.2,0.8-4.3,1.3-6.4c2.7-12.6,6.6-24.8,11.6-36.3s11.1-22.6,18.2-32.8s15.1-19.8,23.9-28.5
		s18.5-16.6,28.9-23.5s21.5-12.8,33.1-17.6s23.9-8.5,36.6-11s25.8-3.8,39.2-3.7s26.5,1.6,39.1,4.2s24.8,6.6,36.4,11.6
		c11.6,5,22.6,11.1,32.9,18.1s19.9,15.1,28.6,23.9c8.7,8.8,16.6,18.5,23.5,28.9s12.8,21.5,17.7,33.1c4.8,11.6,8.6,23.9,11,36.5
		c0.2,0.8,0.3,1.7,0.5,2.5"/>
	<path class="st3" d="M362.1,306.1c-34.8,52.4-94.4,87-162.1,87c-67.7,0-127.3-34.6-162.1-87"/>
	<g>
		<path class="st3" d="M295,317.7c-24.9,22.4-57.8,36.1-93.9,36.1c-36.1,0-69.1-13.6-93.9-36"/>
	</g>
	<path class="st3" d="M322.1,307.5c-29.1,34.5-72.7,56.3-121.4,56.3c-48.2,0-91.3-21.4-120.4-55.2"/>
	<path class="st3" d="M49.1,158.2C69.2,93.7,129.5,46.9,200.7,46.9c71,0,131.2,46.6,151.4,110.8"/>
	<g id="Слой_2">
	</g>
</g>
</svg>
