<?xml version="1.0" encoding="utf-8"?>
<!-- Generator: Adobe Illustrator 22.1.0, SVG Export Plug-In . SVG Version: 6.00 Build 0)  -->
<svg version="1.1" id="Слой_1" xmlns="http://www.w3.org/2000/svg" xmlns:xlink="http://www.w3.org/1999/xlink" x="0px" y="0px"
	 viewBox="0 0 200 200" style="enable-background:new 0 0 200 200;" xml:space="preserve">
<style type="text/css">
	.st0{fill:none;stroke:white;stroke-width:5;stroke-miterlimit:10;}
	.st1{fill:none;stroke:white;stroke-width:5;stroke-linecap:round;stroke-miterlimit:10;}
</style>
<g>
	<g>
		<path class="st0" d="M135.2,58.4c0,0-35.7-0.3-48.3,0c-3.6,0.1-7-9.7-10.6-9.6c-12.1,0.1-23.4-3-23.4,6.8v95.1
			c0,9.9,8,17.9,17.9,17.9h57.6c9.9,0,17.9-8,17.9-17.9V76.3C146.2,66.4,145,58.4,135.2,58.4z"/>
		<path class="st0" d="M145.3,66.5V43.6c0-5.2-4.2-9.4-9.4-9.4h-27c-2.9,0-5.6,1.3-7.4,3.6l-15,18.1"/>
		<path class="st0" d="M73.3,46.5H56.7c-2.1,0-3.8-1.7-3.8-3.8V34c0-2.1,1.7-3.8,3.8-3.8h16.6c2.1,0,3.8,1.7,3.8,3.8v8.7
			C77.2,44.8,75.5,46.5,73.3,46.5z"/>
	</g>
	<g>
		<rect x="79.8" y="87.5" class="st0" width="39.7" height="51.1"/>
		<line class="st1" x1="119.5" y1="87.5" x2="131.3" y2="75"/>
		<line class="st1" x1="79.5" y1="87.5" x2="67.7" y2="75"/>
		<line class="st1" x1="79.5" y1="139.5" x2="67.7" y2="151.9"/>
		<line class="st1" x1="119.5" y1="139.5" x2="131.3" y2="151.9"/>
	</g>
</g>
</svg>
