<?xml version="1.0" encoding="utf-8"?>
<!-- Generator: Adobe Illustrator 22.1.0, SVG Export Plug-In . SVG Version: 6.00 Build 0)  -->
<svg version="1.1" id="Слой_1" xmlns="http://www.w3.org/2000/svg" xmlns:xlink="http://www.w3.org/1999/xlink" x="0px" y="0px"
	 viewBox="0 0 50 50" style="enable-background:new 0 0 50 50;" xml:space="preserve">
<style type="text/css">
	.st0{fill:#585858;}
</style>
<g>
	<path class="st0" d="M25,0C11.2,0,0,11.2,0,25s11.2,25,25,25s25-11.2,25-25S38.8,0,25,0z M25,46.2C13.3,46.2,3.8,36.7,3.8,25
		S13.3,3.8,25,3.8S46.2,13.3,46.2,25S36.7,46.2,25,46.2z"/>
	<path class="st0" d="M36.6,29.1c-0.6-0.6-1.1-1-1.2-1.2c-0.1-0.1-0.1-0.1-0.1-0.1c0,0,0.2-0.3,0.5-0.8c0.4-0.5,1-1.2,1.8-2.2
		c1-1.3,1.7-2.5,2.1-3.5c0.2-0.5,0.4-1,0.5-1.4c0.1-0.4,0.2-0.8,0-1.3c-0.1-0.4-0.4-0.7-0.7-0.9c-0.3-0.2-0.5-0.2-0.8-0.3
		c-0.5-0.1-0.9-0.1-1.2-0.1c-0.8,0-4.3,0-4.6,0c-0.3,0-0.9,0.1-1.1,0.3c-0.6,0.4-0.8,0.8-0.8,0.8L31,18.7l0,0.1c0,0-0.8,2.6-1.6,3.9
		h0c-1,1.6-1.7,2.2-2,2.4c0,0,0,0,0,0c0-0.1-0.1-0.2-0.1-0.4c0-0.4,0-1,0-1.6c0-1.6,0.1-2.5,0-3.5c-0.1-0.5-0.2-1-0.6-1.4
		c-0.4-0.4-0.9-0.6-1.4-0.7h0c-0.5-0.1-1.1-0.2-2.4-0.2c-1.7,0-2.8,0-3.7,0.5l0,0l0,0c-0.4,0.2-0.7,0.4-0.9,0.7
		c-0.1,0.1-0.3,0.2-0.4,0.7c-0.1,0.2-0.1,0.6,0.2,1s0.6,0.4,0.8,0.5c0,0,0.2,0,0.3,0.1s0.3,0.2,0.3,0.2v0c0,0,0.1,0.3,0.2,0.7
		s0,0.6,0,0.6l0,0.1l0,0.1c0,0,0.1,0.7,0,1.5c0,0.4-0.1,0.8-0.1,1c0,0,0,0,0,0c-0.3-0.2-0.9-0.9-1.8-2.3c-0.8-1.3-1.5-3.7-1.5-3.7
		l0-0.1l0-0.1c0,0-0.1-0.5-0.8-1c-0.6-0.4-1.1-0.5-1.1-0.5l-0.1,0l-4.4,0c0,0-0.3,0-0.6,0c-0.3,0-0.8,0.1-1.2,0.6l0,0l0,0
		c-0.4,0.5-0.4,1-0.3,1.3c0.1,0.3,0.2,0.5,0.2,0.5v0c0,0.1,3.2,7.9,7.2,12.1c2.8,3,5.9,3.9,8.6,3.9H25c0.5,0,0.9,0,1.3-0.3
		c0.5-0.2,0.8-0.9,0.8-1.4c0-0.5,0-1.1,0.1-1.4c0.1-0.3,0-0.2,0.1-0.2c0,0,0.1,0,0.2,0.1c0.2,0.1,0.5,0.3,0.8,0.5
		c0.7,0.5,1.4,1.3,2.3,1.8c1.3,0.8,2.6,0.8,2.6,0.8h4.5l0,0c0,0,0.7,0,1.4-0.5c0.4-0.2,0.8-0.6,0.9-1.2c0.1-0.6,0-1.2-0.4-1.8
		C39.7,32.2,39,31.3,36.6,29.1z M32.9,19.6C32.9,19.6,32.9,19.6,32.9,19.6C32.9,19.6,32.9,19.6,32.9,19.6
		C32.9,19.6,32.9,19.6,32.9,19.6C32.9,19.6,32.8,19.6,32.9,19.6C32.9,19.6,32.9,19.6,32.9,19.6z M37.7,33.7h-4.4h0
		c0,0-0.8,0-1.4-0.4l0,0h0c-0.6-0.4-1.4-1.1-2.2-1.7c-0.4-0.3-0.8-0.6-1.3-0.8c-0.5-0.2-1.1-0.4-1.7-0.2c-0.9,0.3-1.4,1.1-1.6,1.8
		C25,32.8,25,33.3,25,33.7c0,0,0,0,0,0h-1.4c-2.2,0-4.5-0.7-7-3.3c-3.2-3.4-6.1-9.9-6.5-10.9l3.8,0c0.1,0,0.2,0.1,0.2,0.1
		c0,0,0,0,0,0l0-0.1c0,0,0,0.1,0,0.1c0,0,0,0,0,0v0c0,0,0,0,0,0h0v0c0,0,0,0,0,0l0,0c0,0,0,0,0,0c0,0,0,0,0,0c0,0.1,0.7,2.4,1.7,4.1
		c0.9,1.6,1.6,2.4,2.4,3c0.8,0.5,1.8,0.5,2.3,0.2c0.7-0.4,0.9-1,1-1.4c0.1-0.5,0.2-1,0.2-1.5c0-0.9,0-1.6,0-1.7c0,0,0-0.4,0-0.9
		c-0.1-0.5-0.2-1.1-0.6-1.7c0.5-0.1,0.7-0.2,1.7-0.2c1.2,0,1.4,0.1,1.9,0.2c0.2,0,0.2,0.1,0.3,0.1c0,0,0,0,0,0c0,0,0,0,0,0
		c0,0,0,0.1,0,0.2c0.1,0.4,0,1.5,0,3.1c0,0.5,0,1.1,0,1.8c0.1,0.7,0.3,1.6,1.1,2.1c0.5,0.3,1.4,0.4,2.2-0.1c0.8-0.5,1.7-1.4,2.8-3.1
		c1.1-1.7,1.7-4,1.8-4.2c0,0,0,0,0,0c0,0,0,0,0,0c0.4,0,3.8,0,4.6,0c0.2,0,0.3,0,0.4,0c-0.1,0.2-0.1,0.5-0.3,0.9
		c-0.4,0.8-1,1.9-1.8,3c-0.8,1-1.3,1.7-1.8,2.2s-0.8,1-0.9,1.7s0.1,1.4,0.5,1.9s0.9,0.9,1.5,1.4c2.4,2.1,2.8,2.8,2.8,2.8v0
		c0,0.1,0,0,0,0C37.8,33.6,37.7,33.7,37.7,33.7z"/>
</g>
</svg>
