<?xml version="1.0" encoding="utf-8"?>
<!-- Generator: Adobe Illustrator 22.1.0, SVG Export Plug-In . SVG Version: 6.00 Build 0)  -->
<svg version="1.1" id="Слой_1" xmlns="http://www.w3.org/2000/svg" xmlns:xlink="http://www.w3.org/1999/xlink" x="0px" y="0px"
	 viewBox="0 0 200 200" style="enable-background:new 0 0 200 200;" xml:space="preserve">
<style type="text/css">
	.st0{fill:none;stroke:white;stroke-width:5;stroke-miterlimit:10;}
</style>
<g>
	<path class="st0" d="M70,155c30.5,16.4,68.6,4.9,85-25.6s4.9-68.6-25.6-85s-68.6-4.9-85,25.6C28.1,100.5,39.5,138.7,70,155z
		 M77.2,131.4c-5.8-4.2-10.2-9.7-13-16l26-8.2L77.2,131.4z M115.4,135.2l-8.4-26.9l24.8,13.3C127.6,127.8,121.9,132.4,115.4,135.2z
		 M136.1,113.2l-23.8-12.8l25.5-8C139.2,99.2,138.6,106.3,136.1,113.2z M122.2,68.1c5.6,4,9.9,9.2,12.7,15.2l-25,7.9L122.2,68.1z
		 M106.2,138c-6.8,1.2-13.9,0.5-20.6-2.1l12.6-23.3L106.2,138z M113.7,63.6L100.6,88l-8.3-26.4C99.4,60.3,106.8,60.9,113.7,63.6z
		 M83.3,64.6l7.6,24.2l-22.4-12C72.4,71.4,77.5,67.3,83.3,64.6z M87.8,98l-26.3,8.2c-1.2-7-0.5-14.3,2.3-21.2L87.8,98z"/>
</g>
</svg>
