<?xml version="1.0" encoding="utf-8"?>
<!-- Generator: Adobe Illustrator 24.1.3, SVG Export Plug-In . SVG Version: 6.00 Build 0)  -->
<svg version="1.1" xmlns="http://www.w3.org/2000/svg" xmlns:xlink="http://www.w3.org/1999/xlink" x="0px" y="0px"
	 viewBox="0 0 811.7 446.3" style="enable-background:new 0 0 811.7 446.3;" xml:space="preserve">
<style type="text/css">
	.st0{fill:none;stroke:#000000;stroke-width:5;stroke-miterlimit:10;}
	.st1{fill:none;stroke:#000000;stroke-width:5;stroke-linecap:round;stroke-miterlimit:10;}
</style>
<g id="Layer_1">
</g>
<g id="Layer_2">
	<g>
		<path class="st0" d="M240.1,83.9c-11.9,29.2-22.7,37.1-26.1,61.4c-4.1,29.6,10.8,51.9,38.4,51.9h1.6c27.5,0,42.5-22.3,38.4-51.9
			c-3.4-24.3-14.2-32.2-26.1-61.4c-3.1-7.6-12.1-26.3-13.1-26.3C252.2,57.6,243.1,76.3,240.1,83.9z"/>
		<path class="st1" d="M231.6,175.6c-5.6-6.1-8.4-15.9-7-25.8"/>
	</g>
	<g>
		<path class="st0" d="M363,186c30.5,16.4,68.6,4.9,85-25.6c16.4-30.5,4.9-68.6-25.6-85c-30.5-16.4-68.6-4.9-85,25.6
			C321.1,131.5,332.5,169.7,363,186z M370.2,162.4c-5.8-4.2-10.2-9.7-13-16l26-8.2L370.2,162.4z M408.4,166.2l-8.4-26.9l24.8,13.3
			C420.6,158.8,414.9,163.4,408.4,166.2z M429.1,144.2l-23.8-12.8l25.5-8C432.2,130.2,431.6,137.3,429.1,144.2z M415.2,99.1
			c5.6,4,9.9,9.2,12.7,15.2l-25,7.9L415.2,99.1z M399.2,169c-6.8,1.2-13.9,0.5-20.6-2.1l12.6-23.3L399.2,169z M406.7,94.6L393.6,119
			l-8.3-26.4C392.4,91.3,399.8,91.9,406.7,94.6z M376.3,95.6l7.6,24.2l-22.4-12C365.4,102.4,370.5,98.3,376.3,95.6z M380.8,129
			l-26.3,8.2c-1.2-7-0.5-14.3,2.3-21.2L380.8,129z"/>
	</g>
	<g>
		<g>
		</g>
	</g>
	<path class="st0" d="M553.4,56.8l-48.8,86.3c-0.5,0.8,0.4,1.7,1.5,1.5l23.1-3.8c1-0.2,1.8,0.5,1.6,1.3L515,204
		c-0.3,1.3,1.9,1.9,2.6,0.7l55.7-93.5c0.5-0.8-0.4-1.7-1.5-1.6l-30.7,5.1c-1,0.2-1.8-0.6-1.6-1.3L556,57.5
		C556.4,56.2,554.1,55.6,553.4,56.8z"/>
	<g>
		<g>
			<path d="M253.4,387.1h-1.6c-12.7,0-23.4-4.5-30.9-13.1c-8.8-10.1-12.3-24.8-10-41.7c2.1-15.2,7-24.1,13.2-35.4
				c3.9-7.1,8.4-15.2,13-26.6l0,0c1.5-3.7,4.5-10.2,7.4-16.1c5.8-11.7,6.3-11.7,8-11.7c1.7,0,2.2,0,8,11.7
				c2.9,5.9,5.9,12.4,7.4,16.1c4.6,11.3,9.1,19.4,13,26.6c6.2,11.3,11.1,20.2,13.2,35.4c2.3,16.8-1.2,31.6-10,41.7
				C276.8,382.6,266.1,387.1,253.4,387.1z M241.8,272.3c-4.7,11.6-9.3,19.8-13.3,27.1c-6,10.8-10.7,19.4-12.7,33.7
				c-2.1,15.4,1,28.7,8.8,37.7c6.5,7.4,15.8,11.4,27.1,11.4h1.6c11.2,0,20.6-3.9,27.1-11.4c7.8-8.9,10.9-22.3,8.8-37.7
				c-2-14.3-6.7-22.9-12.7-33.7c-4-7.3-8.5-15.5-13.3-27.1c-2.4-6-7.9-17.4-10.8-22.7C249.7,254.9,244.2,266.3,241.8,272.3
				L241.8,272.3z"/>
		</g>
		<g>
			<path d="M231,365.6c-0.7,0-1.4-0.3-1.8-0.8c-6.2-6.8-9.1-17.5-7.6-27.8c0.2-1.4,1.5-2.3,2.8-2.1c1.4,0.2,2.3,1.5,2.1,2.8
				c-1.3,8.9,1.1,18,6.4,23.7c0.9,1,0.9,2.6-0.2,3.5C232.2,365.4,231.6,365.6,231,365.6z"/>
		</g>
	</g>
	<g>
		<g>
			<path d="M392,383.5c-10.4,0-21-2.5-30.8-7.8c-15.3-8.2-26.5-22-31.6-38.7c-5-16.7-3.3-34.4,5-49.7c17-31.7,56.7-43.6,88.4-26.6
				c15.3,8.2,26.5,22,31.6,38.7s3.3,34.4-5,49.7C437.9,371,415.3,383.5,392,383.5z M392.2,258c-21.5,0-42.3,11.5-53.2,31.7
				c-7.6,14.2-9.2,30.5-4.6,45.9s15,28.1,29.2,35.7l0,0c29.3,15.7,65.9,4.7,81.6-24.6c7.6-14.2,9.2-30.4,4.6-45.9
				s-15-28.1-29.2-35.7C411.6,260.3,401.9,258,392.2,258z M392.1,359.5c-5.1,0-10.2-0.9-15-2.8l-2.6-1l16.8-31l10.6,33.8l-2.8,0.5
				C396.8,359.3,394.4,359.5,392.1,359.5z M381.7,353c4.4,1.3,9.1,1.8,13.7,1.4l-5.3-16.9L381.7,353z M406.3,357.1l-11.1-35.4
				l32.7,17.6l-1.6,2.3c-4.3,6.3-10.3,11.3-17.4,14.4L406.3,357.1z M403.6,331.9l5.7,18.3c4.3-2.3,8.1-5.4,11.1-9.2L403.6,331.9z
				 M370.5,353.6l-2.3-1.6c-6.1-4.3-10.8-10.2-13.8-17l-1.1-2.6l34.5-10.8L370.5,353.6z M360.2,335.4c2.2,4.1,5.1,7.7,8.7,10.7
				l8.7-16.1L360.2,335.4z M429.9,335.2l-31.6-17l33.8-10.6l0.5,2.7c1.4,7.4,0.8,15-1.8,22.2L429.9,335.2z M411.1,319.4l16,8.6
				c1.3-4.5,1.7-9.3,1.1-13.9L411.1,319.4z M351.9,328l-0.5-2.8c-1.3-7.6-0.5-15.4,2.4-22.5l1-2.6l31.7,17L351.9,328z M357.5,307.2
				c-1.5,4.6-2,9.5-1.5,14.3l17.8-5.6L357.5,307.2z M397.1,313.8l16.6-30.9l2.3,1.6c5.8,4.1,10.4,9.7,13.5,16.1l1.2,2.6L397.1,313.8
				z M415.4,290.4l-8.1,15l16.3-5.1C421.5,296.5,418.7,293.1,415.4,290.4z M392.4,312.9l-10.9-34.7l2.7-0.5c7.6-1.5,15.5-0.8,22.8,2
				l2.6,1L392.4,312.9z M388,282.2l5.6,17.9l8.9-16.6C397.8,282,392.9,281.6,388,282.2z M387.5,312.4l-30.3-16.3l1.7-2.3
				c4.1-5.5,9.5-10,15.8-12.9l2.6-1.2L387.5,312.4z M364.7,294.5l14.3,7.7l-4.8-15.5C370.6,288.8,367.4,291.4,364.7,294.5z"/>
		</g>
	</g>
	<g>
		<path d="M515.7,395.3c-0.5,0-1.1-0.1-1.6-0.3c-1.7-0.7-2.6-2.4-2.2-4.1l15.3-59.8l-21.4,3.5c-1.5,0.2-3.1-0.4-3.9-1.6
			c-0.8-1.1-0.8-2.5-0.2-3.7l48.8-86.3c1-1.7,3.1-2.4,5-1.6c1.7,0.7,2.6,2.5,2.1,4.2l-15.9,53.7l28.8-4.8c1.6-0.3,3.1,0.4,3.9,1.6
			c0.8,1.1,0.8,2.5,0.1,3.7l-55.7,93.5C518.4,394.7,517.1,395.3,515.7,395.3z M528.9,325.8c1.1,0,2.2,0.5,2.9,1.3
			c0.8,0.9,1.1,2.1,0.8,3.2l-13.8,53.8l50-84.1l-28.1,4.6c-1.4,0.2-2.8-0.3-3.7-1.3c-0.8-0.9-1.1-2.1-0.7-3.3l13.6-45.8l-42.4,74.9
			l20.6-3.4C528.5,325.8,528.7,325.8,528.9,325.8z"/>
	</g>
	<g>
		<path class="st0" d="M594.6,140.6c-1.1,5.9,4.5,4.8,4.5,4.8l1.9-7.4C601,138.1,595.8,134.8,594.6,140.6z"/>
		<path class="st0" d="M689.5,82.8c-46.9-0.3-56.5,33.4-56.5,33.4c-33.9,2.3-34.9,31.1-34.9,31.1l0.3,3.1c0,0,4.8-13.5,23.2-13.5
			c18.3,0,23.9,22.4,23.9,22.4h71.3c0,0,6.4-22.4,22.7-23.2c16.3-0.8,24.7,11.7,24.7,11.7l0.8-3.3
			C753.5,112.1,737.7,83.1,689.5,82.8z"/>
		<path class="st0" d="M724.8,96.7c-12.7-7.8-28.5-8.2-29.2-7.6c-0.7,0.5-0.8,28.2-0.2,29.5c0.7,1.4,44,2.1,46.7,1.2
			C743.6,119.3,736,103.6,724.8,96.7z"/>
		<path class="st0" d="M657.4,96.7c-11.2,6.9-13.6,18.5-13.9,20c-0.8,4.6,42.1,2.5,43.2,1.9c1.3-0.8,0.9-28.9,0.1-29.2
			C685.5,88.9,670.2,88.9,657.4,96.7z"/>
		<path class="st0" d="M743.8,146.7c-7.5-0.8-16.9,4.6-17.6,14.4c-0.7,9.8,6.6,17.4,15.7,17.7c9.1,0.3,16.2-7.6,16.5-16.7
			C758.6,153.9,751.3,147.5,743.8,146.7z"/>
		<path class="st0" d="M621.1,146.7c-7.5-0.8-16.9,4.6-17.6,14.4c-0.7,9.8,6.6,17.4,15.7,17.7c9.1,0.3,16.2-7.6,16.5-16.7
			C635.8,153.9,628.6,147.5,621.1,146.7z"/>
	</g>
	<g>
		<g>
			<path d="M600,333.1c-1.3,0-3.2-0.3-4.6-1.7c-1-1-2-2.9-1.4-6.2c0.6-3.2,2.3-4.5,3.6-5.1c3-1.3,6.2,0.6,6.6,0.9l1.5,1l-2.8,10.7
				l-1.6,0.3C601.2,333,600.7,333.1,600,333.1z M599.8,324.7c-0.1,0-0.2,0-0.3,0c-0.1,0.1-0.4,0.4-0.6,1.4v0c-0.2,1.1,0,1.6,0,1.7
				c0,0,0,0,0.1,0.1L599.8,324.7C599.8,324.7,599.8,324.7,599.8,324.7z"/>
		</g>
		<g>
			<path d="M598.6,347l-1.2-14.7l0-0.1c0-0.3,1.5-30.1,35.6-33.3c1.2-3,4.2-9.6,10.7-16.2c7.8-7.9,22.4-17.3,47.1-17.3
				c0.2,0,0.4,0,0.5,0c51.1,0.3,66.9,32.8,77.7,63.3l0.2,0.7l-2.2,9.6l-3.2-4.8c-0.3-0.5-7.9-11.3-22.5-10.6
				c-14.3,0.7-20.3,21.2-20.4,21.4l-0.5,1.8l-1.9,0h-73.3l-0.5-1.9c-0.1-0.2-5.4-20.5-21.5-20.5c-16.4,0-20.8,11.7-20.8,11.8
				L598.6,347z M649.1,341.7h67.6c2-5.7,9.2-22.5,24.4-23.2c9.9-0.5,17.2,3.6,21.6,7.2c-10.6-28.6-25.9-55.2-71.4-55.5
				c-0.2,0-0.3,0-0.5,0c-44,0-53.5,31.2-53.6,31.6l-0.5,1.7l-1.7,0.1c-22.1,1.5-29.2,14.8-31.5,22.7c3.9-3.6,10.2-7.1,19.9-7.1
				C640.3,319.3,647.2,336,649.1,341.7z"/>
		</g>
		<g>
			<path d="M732.5,307.7c-5.4,0-10.9-0.1-12.8-0.1c-23.6-0.5-24-1.3-24.8-2.8c-0.3-0.5-0.8-1.5-0.7-16.2c0.1-15.3,0.5-15.6,1.6-16.4
				c2.2-1.6,19.3-0.3,32,7.5l0,0c10.4,6.4,19.1,21.2,18.7,25.2c-0.1,1.1-0.9,2.1-1.9,2.4C743.4,307.6,738,307.7,732.5,307.7z
				 M699.6,302.9L699.6,302.9L699.6,302.9z M699.4,301.7c6.6,0.9,33.3,1.3,41.5,1c-1.8-4.3-7.8-13.9-15.7-18.7l0,0
				c-9.5-5.8-21.3-7.3-25.7-7.4C699.2,281.7,699.1,296.9,699.4,301.7z M699.7,274.9L699.7,274.9z"/>
		</g>
		<g>
			<path d="M665.6,307.2c-17.6,0-20.1-1.7-21.1-2.4c-1.2-0.8-1.8-2.1-1.6-3.4c0.4-2.4,3.2-14.5,15-21.7l0,0
				c13.1-8,29.3-8.4,31.6-7.5c1.6,0.6,1.8,2.2,1.9,3.8c0.3,3.1,0.5,9.8,0.5,16c-0.1,12.7-0.8,13.1-2,13.9c-1.9,1.2-21,1.4-21.2,1.4
				C667.6,307.2,666.6,307.2,665.6,307.2z M686.4,302.6L686.4,302.6L686.4,302.6z M648.1,301c5.7,1.8,31.7,1.2,38.5,0.5
				c0.5-4.6,0.4-19.6,0-24.7c-0.1,0-0.1,0-0.2,0c-4.3,0-15.8,0.9-25.9,7.1l0,0C651.9,289.2,649,297.6,648.1,301z"/>
		</g>
		<g>
			<path d="M744.2,366.4c-0.2,0-0.4,0-0.7,0c-5.2-0.2-9.9-2.4-13.3-6.2c-3.4-3.8-5.1-8.9-4.7-14.2c0.3-4.8,2.6-9.1,6.3-12.3
				c4-3.3,9.2-5,14.1-4.5l0,0c8.3,0.9,17,8,16.7,18c-0.2,5.4-2.5,10.7-6.4,14.3C752.9,364.7,748.7,366.4,744.2,366.4z M744.1,334.2
				c-3.2,0-6.5,1.2-9.1,3.4c-1.9,1.6-4.2,4.4-4.5,8.8c-0.3,4,1,7.7,3.5,10.5c2.5,2.8,6,4.4,9.8,4.5c3.3,0.1,6.6-1.1,9.1-3.5
				c2.9-2.7,4.7-6.7,4.8-10.8c0.2-7.1-6.2-12.2-12.3-12.9C745,334.2,744.6,334.2,744.1,334.2z"/>
		</g>
		<g>
			<path d="M621.5,366.4c-0.2,0-0.4,0-0.7,0c-5.2-0.2-9.9-2.4-13.3-6.2c-3.4-3.8-5.1-8.9-4.7-14.2c0.3-4.8,2.6-9.1,6.3-12.3
				c4-3.3,9.2-5,14.1-4.5l0,0c8.3,0.9,17,8,16.7,18c-0.2,5.4-2.5,10.7-6.4,14.3C630.2,364.7,625.9,366.4,621.5,366.4z M621.4,334.2
				c-3.2,0-6.6,1.2-9.1,3.4c-1.9,1.6-4.2,4.4-4.5,8.8c-0.3,4,1,7.7,3.5,10.5c2.5,2.8,6,4.4,9.8,4.5c3.3,0.1,6.6-1.1,9.1-3.5
				c2.9-2.7,4.7-6.7,4.8-10.8c0.2-7.1-6.2-12.2-12.3-12.9C622.2,334.2,621.8,334.2,621.4,334.2z"/>
		</g>
	</g>
	<g>
		<g>
			<path class="st0" d="M152.2,86.4c0,0-35.7-0.3-48.3,0c-3.6,0.1-7-9.7-10.6-9.6c-12.1,0.1-23.4-3-23.4,6.8v95.1
				c0,9.9,8,17.9,17.9,17.9h57.6c9.9,0,17.9-8,17.9-17.9v-74.4C163.2,94.4,162,86.4,152.2,86.4z"/>
			<path class="st0" d="M162.3,94.5V71.6c0-5.2-4.2-9.4-9.4-9.4h-27c-2.9,0-5.6,1.3-7.4,3.6l-15,18.1"/>
			<path class="st0" d="M90.3,74.5H73.7c-2.1,0-3.8-1.7-3.8-3.8V62c0-2.1,1.7-3.8,3.8-3.8h16.6c2.1,0,3.8,1.7,3.8,3.8v8.7
				C94.2,72.8,92.5,74.5,90.3,74.5z"/>
		</g>
		<g>
			<rect x="96.8" y="115.5" class="st0" width="39.7" height="51.1"/>
			<line class="st1" x1="136.5" y1="115.5" x2="148.3" y2="103"/>
			<line class="st1" x1="96.5" y1="115.5" x2="84.7" y2="103"/>
			<line class="st1" x1="96.5" y1="167.5" x2="84.7" y2="179.9"/>
			<line class="st1" x1="136.5" y1="167.5" x2="148.3" y2="179.9"/>
		</g>
	</g>
	<g>
		<g>
			<g>
				<path d="M145.4,384.6H87.9c-11.2,0-20.4-9.1-20.4-20.4v-95.1c0-3,0.9-5.3,2.6-6.9c3.4-3.3,9.4-3,16.2-2.7
					c2.3,0.1,4.7,0.2,7.1,0.2c0,0,0,0,0,0c3.1,0,5.2,3,7.3,5.9c0.9,1.2,2.5,3.5,3.3,3.8c12.5-0.3,47.5,0,48.3,0
					c13.5,0,13.5,13.3,13.5,20.4v74.4C165.8,375.5,156.7,384.6,145.4,384.6z M80.5,264.4c-3.1,0-5.7,0.3-6.9,1.5c-0.3,0.2-1,1-1,3.3
					v95.1c0,8.5,6.9,15.4,15.4,15.4h57.6c8.5,0,15.4-6.9,15.4-15.4v-74.4c0-11.8-2-15.4-8.5-15.4h0c-0.4,0-35.8-0.3-48.2,0
					c-3.1,0.1-5.3-2.9-7.4-5.9c-0.9-1.3-2.6-3.6-3.3-3.8c-2.5,0-4.9-0.1-7.3-0.2C84.1,264.5,82.2,264.4,80.5,264.4z M104,269.4
					L104,269.4L104,269.4z"/>
			</g>
			<g>
				<path d="M165,280h-5v-22.8c0-3.8-3.1-6.9-6.9-6.9h-27c-2.1,0-4.1,1-5.4,2.6l-15,18.1l-3.8-3.2l15-18.1c2.2-2.8,5.6-4.5,9.3-4.5
					h27c6.6,0,11.9,5.4,11.9,11.9V280z"/>
			</g>
			<g>
				<path d="M90.5,262.6H73.9c-3.5,0-6.3-2.8-6.3-6.3v-8.7c0-3.5,2.8-6.3,6.3-6.3h16.6c3.5,0,6.3,2.8,6.3,6.3v8.7
					C96.8,259.8,94,262.6,90.5,262.6z M73.9,246.2c-0.7,0-1.3,0.6-1.3,1.3v8.7c0,0.7,0.6,1.3,1.3,1.3h16.6c0.7,0,1.3-0.6,1.3-1.3
					v-8.7c0-0.7-0.6-1.3-1.3-1.3H73.9z"/>
			</g>
		</g>
		<g>
			<g>
				<path d="M139.2,354.6H94.5v-56.1h44.7V354.6z M99.5,349.6h34.7v-46.1H99.5V349.6z"/>
			</g>
			<g>
				<path d="M136.7,303.5c-0.6,0-1.2-0.2-1.7-0.7c-1-1-1-2.5-0.1-3.5l11.8-12.4c1-1,2.5-1,3.5-0.1c1,1,1,2.5,0.1,3.5l-11.8,12.4
					C138,303.3,137.3,303.5,136.7,303.5z"/>
			</g>
			<g>
				<path d="M96.7,303.5c-0.7,0-1.3-0.3-1.8-0.8l-11.8-12.4c-1-1-0.9-2.6,0.1-3.5c1-1,2.6-0.9,3.5,0.1l11.8,12.4
					c1,1,0.9,2.6-0.1,3.5C97.9,303.3,97.3,303.5,96.7,303.5z"/>
			</g>
			<g>
				<path d="M84.9,368c-0.6,0-1.2-0.2-1.7-0.7c-1-1-1-2.5-0.1-3.5l11.8-12.4c1-1,2.5-1,3.5-0.1c1,1,1,2.5,0.1,3.5l-11.8,12.4
					C86.2,367.7,85.5,368,84.9,368z"/>
			</g>
			<g>
				<path d="M148.5,368c-0.7,0-1.3-0.3-1.8-0.8l-11.8-12.4c-1-1-0.9-2.6,0.1-3.5c1-1,2.6-0.9,3.5,0.1l11.8,12.4c1,1,0.9,2.6-0.1,3.5
					C149.7,367.8,149.1,368,148.5,368z"/>
			</g>
		</g>
	</g>
</g>
</svg>
